<mxfile host="drawio-plugin" modified="2022-09-15T09:20:30.349Z" agent="5.0 (Macintosh; Intel Mac OS X 10_15_7) AppleWebKit/537.36 (KHTML, like Gecko) Chrome/98.0.4758.102 Safari/537.36" etag="jZFCyKMQcvw1ziJF9I4U" version="15.5.4" type="embed"><diagram id="YJ4hpaqX0-f6CaFAVor2" name="Page-1"><mxGraphModel dx="898" dy="707" grid="1" gridSize="10" guides="1" tooltips="1" connect="1" arrows="1" fold="1" page="1" pageScale="1" pageWidth="850" pageHeight="1100" math="0" shadow="0"><root><mxCell id="0"/><mxCell id="1" parent="0"/><mxCell id="9" style="edgeStyle=orthogonalEdgeStyle;rounded=0;orthogonalLoop=1;jettySize=auto;html=1;exitX=0.75;exitY=1;exitDx=0;exitDy=0;entryX=0.25;entryY=0;entryDx=0;entryDy=0;" edge="1" parent="1" source="2" target="7"><mxGeometry relative="1" as="geometry"/></mxCell><mxCell id="2" value="OAuth Function&lt;br&gt;(Azure Function App)" style="rounded=1;whiteSpace=wrap;html=1;" vertex="1" parent="1"><mxGeometry x="320" y="200" width="120" height="60" as="geometry"/></mxCell><mxCell id="3" value="OS Data Hub" style="rounded=1;whiteSpace=wrap;html=1;" vertex="1" parent="1"><mxGeometry x="320" y="80" width="360" height="60" as="geometry"/></mxCell><mxCell id="5" value="" style="endArrow=classic;html=1;rounded=0;exitX=0.25;exitY=0;exitDx=0;exitDy=0;" edge="1" parent="1" source="2"><mxGeometry width="50" height="50" relative="1" as="geometry"><mxPoint x="500" y="240" as="sourcePoint"/><mxPoint x="350" y="140" as="targetPoint"/></mxGeometry></mxCell><mxCell id="6" value="" style="endArrow=classic;html=1;rounded=0;entryX=0.75;entryY=0;entryDx=0;entryDy=0;" edge="1" parent="1" target="2"><mxGeometry width="50" height="50" relative="1" as="geometry"><mxPoint x="410" y="140" as="sourcePoint"/><mxPoint x="550" y="190" as="targetPoint"/></mxGeometry></mxCell><mxCell id="7" value="Web App (Static Web App)" style="rounded=1;whiteSpace=wrap;html=1;" vertex="1" parent="1"><mxGeometry x="320" y="320" width="360" height="60" as="geometry"/></mxCell><mxCell id="10" value="" style="endArrow=classic;html=1;rounded=0;entryX=0.25;entryY=1;entryDx=0;entryDy=0;exitX=0.083;exitY=0;exitDx=0;exitDy=0;exitPerimeter=0;" edge="1" parent="1" source="7" target="2"><mxGeometry width="50" height="50" relative="1" as="geometry"><mxPoint x="370" y="370" as="sourcePoint"/><mxPoint x="420" y="320" as="targetPoint"/></mxGeometry></mxCell><mxCell id="11" value="" style="endArrow=classic;html=1;rounded=0;entryX=0.75;entryY=1;entryDx=0;entryDy=0;exitX=0.75;exitY=0;exitDx=0;exitDy=0;" edge="1" parent="1" source="7" target="3"><mxGeometry width="50" height="50" relative="1" as="geometry"><mxPoint x="580" y="310" as="sourcePoint"/><mxPoint x="630" y="260" as="targetPoint"/></mxGeometry></mxCell><mxCell id="12" value="" style="endArrow=classic;html=1;rounded=0;exitX=0.917;exitY=1;exitDx=0;exitDy=0;exitPerimeter=0;entryX=0.917;entryY=-0.033;entryDx=0;entryDy=0;entryPerimeter=0;" edge="1" parent="1" source="3" target="7"><mxGeometry width="50" height="50" relative="1" as="geometry"><mxPoint x="370" y="370" as="sourcePoint"/><mxPoint x="420" y="320" as="targetPoint"/></mxGeometry></mxCell><mxCell id="15" value="Request" style="text;html=1;strokeColor=none;fillColor=none;align=center;verticalAlign=middle;whiteSpace=wrap;rounded=0;" vertex="1" parent="1"><mxGeometry x="290" y="275" width="60" height="30" as="geometry"/></mxCell><mxCell id="21" style="edgeStyle=orthogonalEdgeStyle;rounded=0;orthogonalLoop=1;jettySize=auto;html=1;exitX=1;exitY=0.75;exitDx=0;exitDy=0;entryX=0;entryY=0.75;entryDx=0;entryDy=0;" edge="1" parent="1" source="16" target="2"><mxGeometry relative="1" as="geometry"/></mxCell><mxCell id="16" value="Azure Key Vault" style="rounded=1;whiteSpace=wrap;html=1;" vertex="1" parent="1"><mxGeometry x="140" y="200" width="120" height="60" as="geometry"/></mxCell><mxCell id="17" value="Temporary &lt;br&gt;Token" style="text;html=1;align=center;verticalAlign=middle;resizable=0;points=[];autosize=1;strokeColor=none;fillColor=none;" vertex="1" parent="1"><mxGeometry x="408" y="276" width="70" height="30" as="geometry"/></mxCell><mxCell id="18" value="API Key&lt;br&gt;+&lt;br&gt;Client Secret" style="text;html=1;align=center;verticalAlign=middle;resizable=0;points=[];autosize=1;strokeColor=none;fillColor=none;" vertex="1" parent="1"><mxGeometry x="270" y="150" width="80" height="50" as="geometry"/></mxCell><mxCell id="19" value="Temporary &lt;br&gt;Token" style="text;html=1;align=center;verticalAlign=middle;resizable=0;points=[];autosize=1;strokeColor=none;fillColor=none;" vertex="1" parent="1"><mxGeometry x="408" y="160" width="70" height="30" as="geometry"/></mxCell><mxCell id="20" value="" style="endArrow=classic;html=1;rounded=0;entryX=1;entryY=0.25;entryDx=0;entryDy=0;exitX=0;exitY=0.25;exitDx=0;exitDy=0;" edge="1" parent="1" source="2" target="16"><mxGeometry width="50" height="50" relative="1" as="geometry"><mxPoint x="370" y="330" as="sourcePoint"/><mxPoint x="420" y="280" as="targetPoint"/></mxGeometry></mxCell><mxCell id="22" value="Key + Secret" style="text;html=1;align=center;verticalAlign=middle;resizable=0;points=[];autosize=1;strokeColor=none;fillColor=none;" vertex="1" parent="1"><mxGeometry x="250" y="250" width="80" height="20" as="geometry"/></mxCell><mxCell id="23" value="Temporary&lt;br&gt;Token" style="text;html=1;align=center;verticalAlign=middle;resizable=0;points=[];autosize=1;strokeColor=none;fillColor=none;" vertex="1" parent="1"><mxGeometry x="525" y="225" width="70" height="30" as="geometry"/></mxCell><mxCell id="24" value="Map" style="text;html=1;align=center;verticalAlign=middle;resizable=0;points=[];autosize=1;strokeColor=none;fillColor=none;" vertex="1" parent="1"><mxGeometry x="650" y="230" width="40" height="20" as="geometry"/></mxCell></root></mxGraphModel></diagram></mxfile>